<svg width="44" height="42" viewBox="0 0 44 42" fill="none" xmlns="http://www.w3.org/2000/svg">
<g id="mingcute:discord-line" clip-path="url(#clip0_1001_143)">
<g id="Group">
<path id="Vector" d="M27.5054 7C27.9802 7 28.576 7.119 29.0545 7.231C30.7229 7.616 32.701 8.09375 34.1054 9.1C35.4125 10.0363 36.4282 11.669 37.2129 13.328C38.8445 16.7843 39.9794 21.392 40.3717 24.8955C40.5587 26.558 40.6045 28.231 40.269 29.3562C40.104 29.9093 39.7465 30.3258 39.4954 30.5813C38.729 31.3565 37.7427 31.9357 36.7674 32.4625L36.2834 32.7232C35.9646 32.8925 35.6437 33.0582 35.3209 33.2202L34.3639 33.6928L33.0494 34.3175L31.9915 34.8145C31.6044 34.9996 31.1612 35.0479 30.7403 34.951C30.3194 34.854 29.9481 34.618 29.6921 34.2847C29.436 33.9514 29.3118 33.5424 29.3414 33.1301C29.371 32.7178 29.5526 32.3288 29.8539 32.032L29.0582 30.513C26.7703 31.1767 24.3911 31.5094 21.9999 31.5C19.4882 31.5 17.092 31.15 14.9415 30.513L14.1477 32.0285C14.4501 32.3248 14.6328 32.7138 14.6633 33.1264C14.6939 33.539 14.5703 33.9487 14.3145 34.2826C14.0587 34.6165 13.6873 34.8532 13.2661 34.9506C12.8449 35.0479 12.4012 34.9997 12.0137 34.8145L11.0164 34.342C9.90903 33.8205 8.8017 33.299 7.7237 32.7232C6.59803 32.123 5.40453 31.4843 4.5117 30.5795C4.1554 30.2357 3.89017 29.8158 3.73803 29.3545C3.4007 28.231 3.44836 26.5597 3.63353 24.8955C4.02586 21.392 5.1607 16.7843 6.7942 13.328C7.57703 11.669 8.5927 10.0363 9.89986 9.1C11.3042 8.09375 13.2824 7.616 14.9507 7.231C15.4292 7.119 16.0232 7 16.4999 7C16.7635 6.99978 17.0242 7.05386 17.2639 7.15853C17.5037 7.26321 17.717 7.41603 17.8893 7.60656C18.0616 7.79709 18.1888 8.02085 18.2622 8.26257C18.3357 8.5043 18.3536 8.7583 18.3149 9.00725C19.5349 8.83494 20.7666 8.74896 21.9999 8.75C23.2667 8.75 24.5042 8.8375 25.6922 9.009C25.6531 8.75992 25.6709 8.50572 25.7442 8.26378C25.8175 8.02184 25.9446 7.79786 26.117 7.60713C26.2893 7.4164 26.5027 7.26342 26.7426 7.15864C26.9825 7.05386 27.2415 6.99975 27.5054 7ZM29.9877 11.1353C29.7127 11.0513 29.6467 11.088 29.5477 11.2455L29.434 11.4415C29.1377 11.9264 28.6878 12.3089 28.1491 12.5341C27.6104 12.7593 27.0108 12.8154 26.4365 12.6945C24.9785 12.3957 23.4911 12.2467 21.9999 12.25C20.4379 12.25 18.9437 12.4075 17.5632 12.6945C16.9889 12.8154 16.3893 12.7593 15.8506 12.5341C15.3119 12.3089 14.862 11.9264 14.5657 11.4415L14.452 11.2473C14.3549 11.0898 14.2889 11.053 14.0157 11.1353C13.363 11.333 12.6627 11.5448 12.0999 11.9C11.5737 12.2763 10.8715 13.2125 10.1364 14.7683C8.73203 17.738 7.63203 22.1253 7.28003 25.2683C7.2067 25.9315 7.1682 26.5002 7.15903 26.9693V27.4837C7.16636 27.7952 7.1902 28.042 7.2232 28.2205C7.68886 28.6562 8.26453 28.9975 8.84203 29.3108L10.0924 29.9705L10.91 30.3818L11.5774 29.1077C11.2543 28.8204 11.0507 28.4313 11.0041 28.0122C10.9575 27.593 11.0709 27.1718 11.3236 26.8261C11.5763 26.4804 11.9512 26.2334 12.3794 26.1304C12.8077 26.0275 13.2604 26.0755 13.6545 26.2658C15.8839 27.335 18.7842 28 21.9999 28C25.2137 28 28.1159 27.3315 30.3452 26.2675C30.7224 26.0871 31.1533 26.0364 31.5652 26.124C31.977 26.2117 32.3446 26.4322 32.6059 26.7484C32.8672 27.0647 33.0062 27.4573 32.9995 27.86C32.9928 28.2627 32.8407 28.6509 32.569 28.959L32.4224 29.1077L33.0897 30.3853C33.636 30.1158 34.1842 29.8305 34.7342 29.54C35.4492 29.162 36.2009 28.7648 36.782 28.2223C36.815 28.042 36.837 27.7952 36.8462 27.4837V26.9693C36.8313 26.4003 36.7909 25.8322 36.7252 25.2665C36.3732 22.1252 35.2732 17.738 33.8689 14.7665C33.1355 13.2125 32.4315 12.2763 31.9072 11.9C31.3425 11.5448 30.6422 11.333 29.9877 11.1353ZM16.0415 18.375C16.8924 18.375 17.7085 18.6977 18.3102 19.272C18.9118 19.8463 19.2499 20.6253 19.2499 21.4375C19.2499 22.2497 18.9118 23.0287 18.3102 23.603C17.7085 24.1773 16.8924 24.5 16.0415 24.5C15.1906 24.5 14.3746 24.1773 13.7729 23.603C13.1712 23.0287 12.8332 22.2497 12.8332 21.4375C12.8332 20.6253 13.1712 19.8463 13.7729 19.272C14.3746 18.6977 15.1906 18.375 16.0415 18.375ZM27.9582 18.375C28.8091 18.375 29.6252 18.6977 30.2268 19.272C30.8285 19.8463 31.1665 20.6253 31.1665 21.4375C31.1665 22.2497 30.8285 23.0287 30.2268 23.603C29.6252 24.1773 28.8091 24.5 27.9582 24.5C27.1073 24.5 26.2912 24.1773 25.6896 23.603C25.0879 23.0287 24.7499 22.2497 24.7499 21.4375C24.7499 20.6253 25.0879 19.8463 25.6896 19.272C26.2912 18.6977 27.1073 18.375 27.9582 18.375Z" fill="black"/>
</g>
</g>
<defs>
<clipPath id="clip0_1001_143">
<rect width="44" height="42" fill="white"/>
</clipPath>
</defs>
</svg>
