<svg width="44" height="40" viewBox="0 0 44 40" fill="none" xmlns="http://www.w3.org/2000/svg">
<g id="mingcute:discord-line" clip-path="url(#clip0_2353_312)">
<g id="Group">
<path id="Vector" d="M27.5054 6.66602C27.9802 6.66602 28.576 6.77935 29.0545 6.88602C30.7229 7.25268 32.701 7.70768 34.1054 8.66602C35.4125 9.55768 36.4282 11.1127 37.2129 12.6927C38.8445 15.9844 39.9794 20.3727 40.3717 23.7094C40.5587 25.2927 40.6045 26.886 40.269 27.9577C40.104 28.4844 39.7465 28.881 39.4954 29.1244C38.729 29.8627 37.7427 30.4143 36.7674 30.916L36.2834 31.1643C35.9646 31.3256 35.6437 31.4834 35.3209 31.6377L34.3639 32.0877L33.0494 32.6827L31.9915 33.156C31.6044 33.3323 31.1612 33.3783 30.7403 33.286C30.3194 33.1936 29.9481 32.9688 29.6921 32.6514C29.436 32.334 29.3118 31.9445 29.3414 31.5518C29.371 31.1592 29.5526 30.7887 29.8539 30.506L29.0582 29.0594C26.7703 29.6914 24.3911 30.0083 21.9999 29.9993C19.4882 29.9993 17.092 29.666 14.9415 29.0594L14.1477 30.5027C14.4501 30.7849 14.6328 31.1553 14.6633 31.5483C14.6939 31.9413 14.5703 32.3314 14.3145 32.6494C14.0587 32.9675 13.6873 33.1929 13.2661 33.2856C12.8449 33.3783 12.4012 33.3324 12.0137 33.156L11.0164 32.706C9.90903 32.2094 8.8017 31.7127 7.7237 31.1643C6.59803 30.5927 5.40453 29.9844 4.5117 29.1227C4.1554 28.7953 3.89017 28.3953 3.73803 27.956C3.4007 26.886 3.44836 25.2943 3.63353 23.7094C4.02586 20.3727 5.1607 15.9844 6.7942 12.6927C7.57703 11.1127 8.5927 9.55768 9.89986 8.66602C11.3042 7.70768 13.2824 7.25268 14.9507 6.88602C15.4292 6.77935 16.0232 6.66602 16.4999 6.66602C16.7635 6.66581 17.0242 6.71731 17.2639 6.817C17.5037 6.91669 17.717 7.06223 17.8893 7.24369C18.0616 7.42515 18.1888 7.63825 18.2622 7.86846C18.3357 8.09868 18.3536 8.34059 18.3149 8.57768C19.5349 8.41358 20.7666 8.33169 21.9999 8.33268C23.2667 8.33268 24.5042 8.41602 25.6922 8.57935C25.6531 8.34213 25.6709 8.10004 25.7442 7.86962C25.8175 7.6392 25.9446 7.42588 26.117 7.24423C26.2893 7.06258 26.5027 6.91689 26.7426 6.8171C26.9825 6.71731 27.2415 6.66577 27.5054 6.66602ZM29.9877 10.6043C29.7127 10.5243 29.6467 10.5593 29.5477 10.7093L29.434 10.896C29.1377 11.3578 28.6878 11.7221 28.1491 11.9366C27.6104 12.151 27.0108 12.2045 26.4365 12.0893C24.9785 11.8048 23.4911 11.6629 21.9999 11.666C20.4379 11.666 18.9437 11.816 17.5632 12.0893C16.9889 12.2045 16.3893 12.151 15.8506 11.9366C15.3119 11.7221 14.862 11.3578 14.5657 10.896L14.452 10.711C14.3549 10.561 14.2889 10.526 14.0157 10.6043C13.363 10.7927 12.6627 10.9943 12.0999 11.3327C11.5737 11.691 10.8715 12.5827 10.1364 14.0643C8.73203 16.8927 7.63203 21.071 7.28003 24.0644C7.2067 24.696 7.1682 25.2377 7.15903 25.6844V26.1744C7.16636 26.471 7.1902 26.706 7.2232 26.876C7.68886 27.291 8.26453 27.616 8.84203 27.9144L10.0924 28.5427L10.91 28.9344L11.5774 27.721C11.2543 27.4473 11.0507 27.0768 11.0041 26.6776C10.9575 26.2784 11.0709 25.8773 11.3236 25.548C11.5763 25.2188 11.9512 24.9835 12.3794 24.8854C12.8077 24.7874 13.2604 24.8332 13.6545 25.0143C15.8839 26.0327 18.7842 26.666 21.9999 26.666C25.2137 26.666 28.1159 26.0294 30.3452 25.016C30.7224 24.8442 31.1533 24.796 31.5652 24.8794C31.977 24.9628 32.3446 25.1729 32.6059 25.474C32.8672 25.7752 33.0062 26.1491 32.9995 26.5327C32.9928 26.9162 32.8407 27.2859 32.569 27.5794L32.4224 27.721L33.0897 28.9377C33.636 28.681 34.1842 28.4093 34.7342 28.1327C35.4492 27.7727 36.2009 27.3944 36.782 26.8777C36.815 26.706 36.837 26.471 36.8462 26.1744V25.6844C36.8313 25.1425 36.7909 24.6014 36.7252 24.0627C36.3732 21.071 35.2732 16.8927 33.8689 14.0627C33.1355 12.5827 32.4315 11.691 31.9072 11.3327C31.3425 10.9943 30.6422 10.7927 29.9877 10.6043ZM16.0415 17.4993C16.8924 17.4993 17.7085 17.8066 18.3102 18.3536C18.9118 18.9006 19.2499 19.6425 19.2499 20.416C19.2499 21.1896 18.9118 21.9314 18.3102 22.4784C17.7085 23.0254 16.8924 23.3327 16.0415 23.3327C15.1906 23.3327 14.3746 23.0254 13.7729 22.4784C13.1712 21.9314 12.8332 21.1896 12.8332 20.416C12.8332 19.6425 13.1712 18.9006 13.7729 18.3536C14.3746 17.8066 15.1906 17.4993 16.0415 17.4993ZM27.9582 17.4993C28.8091 17.4993 29.6252 17.8066 30.2268 18.3536C30.8285 18.9006 31.1665 19.6425 31.1665 20.416C31.1665 21.1896 30.8285 21.9314 30.2268 22.4784C29.6252 23.0254 28.8091 23.3327 27.9582 23.3327C27.1073 23.3327 26.2912 23.0254 25.6896 22.4784C25.0879 21.9314 24.7499 21.1896 24.7499 20.416C24.7499 19.6425 25.0879 18.9006 25.6896 18.3536C26.2912 17.8066 27.1073 17.4993 27.9582 17.4993Z" fill="white"/>
</g>
</g>
<defs>
<clipPath id="clip0_2353_312">
<rect width="44" height="40" fill="white"/>
</clipPath>
</defs>
</svg>
