<svg width="90" height="90" viewBox="0 0 90 90" fill="none" xmlns="http://www.w3.org/2000/svg">
<path d="M3 19.6667H86.3333V36.3333L83.4208 38.0833C81.1544 39.4432 78.5609 40.1616 75.9177 40.1616C73.2745 40.1616 70.6811 39.4432 68.4146 38.0833L65.5 36.3333L62.5875 38.0833C60.321 39.4432 57.7275 40.1616 55.0844 40.1616C52.4412 40.1616 49.8477 39.4432 47.5813 38.0833L44.6667 36.3333L41.7542 38.0833C39.4874 39.4436 36.8936 40.1622 34.25 40.1622C31.6064 40.1622 29.0126 39.4436 26.7458 38.0833L23.8333 36.3333L20.9188 38.0833C18.6525 39.4428 16.0594 40.161 13.4167 40.161C10.7739 40.161 8.18083 39.4428 5.91458 38.0833L3 36.3333V19.6667Z" stroke="black" stroke-width="6" stroke-linecap="round" stroke-linejoin="round"/>
<path d="M11.3335 41.5188V86.3333H78.0002V40.5M11.3335 19.2958V3H78.0002V19.6667" stroke="black" stroke-width="6" stroke-linecap="round" stroke-linejoin="round"/>
<path d="M34.25 61.3333H55.0833V86.3333H34.25V61.3333Z" stroke="black" stroke-width="6" stroke-linecap="round" stroke-linejoin="round"/>
</svg>
