<svg width="84" height="84" viewBox="0 0 84 84" fill="none" xmlns="http://www.w3.org/2000/svg">
<rect width="84" height="84" fill="#A9A5A5"/>
<g clip-path="url(#clip0_0_1)">
<rect width="1440" height="6878" transform="translate(-228 -1446)" fill="#1A1A1A"/>
<g filter="url(#filter0_d_0_1)">
<rect x="-151" y="-141" width="414" height="590" rx="20" fill="#111111"/>
<rect x="-150.5" y="-140.5" width="413" height="589" rx="19.5" stroke="#5347E7"/>
</g>
<path d="M79.1667 0H54.1667C53.0616 0 52.0018 0.438987 51.2204 1.22039C50.439 2.00179 50 3.0616 50 4.16667C50 5.27174 50.439 6.33154 51.2204 7.11295C52.0018 7.89435 53.0616 8.33333 54.1667 8.33333H75V29.1667C75 30.2717 75.439 31.3315 76.2204 32.1129C77.0018 32.8943 78.0616 33.3333 79.1667 33.3333C80.2717 33.3333 81.3316 32.8943 82.113 32.1129C82.8944 31.3315 83.3333 30.2717 83.3333 29.1667V4.16667C83.3333 3.0616 82.8944 2.00179 82.113 1.22039C81.3316 0.438987 80.2717 0 79.1667 0ZM79.1667 50C78.0616 50 77.0018 50.439 76.2204 51.2204C75.439 52.0018 75 53.0616 75 54.1667V75H54.1667C53.0616 75 52.0018 75.439 51.2204 76.2204C50.439 77.0018 50 78.0616 50 79.1667C50 80.2717 50.439 81.3316 51.2204 82.113C52.0018 82.8944 53.0616 83.3333 54.1667 83.3333H79.1667C80.2717 83.3333 81.3316 82.8944 82.113 82.113C82.8944 81.3316 83.3333 80.2717 83.3333 79.1667V54.1667C83.3333 53.0616 82.8944 52.0018 82.113 51.2204C81.3316 50.439 80.2717 50 79.1667 50ZM41.6667 16.6667C38.3515 16.6667 35.172 17.9836 32.8278 20.3278C30.4836 22.672 29.1667 25.8515 29.1667 29.1667V33.3333C26.9565 33.3333 24.8369 34.2113 23.2741 35.7741C21.7113 37.3369 20.8333 39.4565 20.8333 41.6667V58.3333C20.8333 60.5435 21.7113 62.6631 23.2741 64.2259C24.8369 65.7887 26.9565 66.6667 29.1667 66.6667H54.1667C56.3768 66.6667 58.4964 65.7887 60.0592 64.2259C61.622 62.6631 62.5 60.5435 62.5 58.3333V41.6667C62.5 39.4565 61.622 37.3369 60.0592 35.7741C58.4964 34.2113 56.3768 33.3333 54.1667 33.3333V29.1667C54.1667 25.8515 52.8497 22.672 50.5055 20.3278C48.1613 17.9836 44.9819 16.6667 41.6667 16.6667ZM37.5 29.1667C37.5 28.0616 37.939 27.0018 38.7204 26.2204C39.5018 25.439 40.5616 25 41.6667 25C42.7717 25 43.8315 25.439 44.6129 26.2204C45.3943 27.0018 45.8333 28.0616 45.8333 29.1667V33.3333H37.5V29.1667ZM54.1667 58.3333H29.1667V41.6667H54.1667V58.3333ZM4.16667 33.3333C5.27174 33.3333 6.33154 32.8943 7.11295 32.1129C7.89435 31.3315 8.33333 30.2717 8.33333 29.1667V8.33333H29.1667C30.2717 8.33333 31.3315 7.89435 32.1129 7.11295C32.8943 6.33154 33.3333 5.27174 33.3333 4.16667C33.3333 3.0616 32.8943 2.00179 32.1129 1.22039C31.3315 0.438987 30.2717 0 29.1667 0H4.16667C3.0616 0 2.00179 0.438987 1.22039 1.22039C0.438987 2.00179 0 3.0616 0 4.16667V29.1667C0 30.2717 0.438987 31.3315 1.22039 32.1129C2.00179 32.8943 3.0616 33.3333 4.16667 33.3333ZM29.1667 75H8.33333V54.1667C8.33333 53.0616 7.89435 52.0018 7.11295 51.2204C6.33154 50.439 5.27174 50 4.16667 50C3.0616 50 2.00179 50.439 1.22039 51.2204C0.438987 52.0018 0 53.0616 0 54.1667V79.1667C0 80.2717 0.438987 81.3316 1.22039 82.113C2.00179 82.8944 3.0616 83.3333 4.16667 83.3333H29.1667C30.2717 83.3333 31.3315 82.8944 32.1129 82.113C32.8943 81.3316 33.3333 80.2717 33.3333 79.1667C33.3333 78.0616 32.8943 77.0018 32.1129 76.2204C31.3315 75.439 30.2717 75 29.1667 75Z" fill="white"/>
</g>
<defs>
<filter id="filter0_d_0_1" x="-201" y="-171" width="514" height="690" filterUnits="userSpaceOnUse" color-interpolation-filters="sRGB">
<feFlood flood-opacity="0" result="BackgroundImageFix"/>
<feColorMatrix in="SourceAlpha" type="matrix" values="0 0 0 0 0 0 0 0 0 0 0 0 0 0 0 0 0 0 127 0" result="hardAlpha"/>
<feOffset dy="20"/>
<feGaussianBlur stdDeviation="25"/>
<feComposite in2="hardAlpha" operator="out"/>
<feColorMatrix type="matrix" values="0 0 0 0 0.32549 0 0 0 0 0.278431 0 0 0 0 0.905882 0 0 0 0.5 0"/>
<feBlend mode="normal" in2="BackgroundImageFix" result="effect1_dropShadow_0_1"/>
<feBlend mode="normal" in="SourceGraphic" in2="effect1_dropShadow_0_1" result="shape"/>
</filter>
<clipPath id="clip0_0_1">
<rect width="1440" height="6878" fill="white" transform="translate(-228 -1446)"/>
</clipPath>
</defs>
</svg>
